<mxfile host="Electron" modified="2024-08-07T10:32:33.889Z" agent="Mozilla/5.0 (Macintosh; Intel Mac OS X 10_15_7) AppleWebKit/537.36 (KHTML, like Gecko) draw.io/24.4.0 Chrome/120.0.6099.109 Electron/28.1.0 Safari/537.36" etag="wigGIdVNa_MMx6BLZj9S" version="24.4.0" type="device">
  <diagram name="Page-1" id="bZBsJEEv_NVjQFhtzkVJ">
    <mxGraphModel dx="1614" dy="354" grid="1" gridSize="10" guides="1" tooltips="1" connect="1" arrows="1" fold="1" page="1" pageScale="1" pageWidth="850" pageHeight="1100" math="1" shadow="0">
      <root>
        <mxCell id="0" />
        <mxCell id="1" parent="0" />
        <mxCell id="4-ESElVZmS9dLBBA-SZq-2" value="" style="endArrow=classic;html=1;rounded=0;strokeWidth=1.5;" parent="1" edge="1">
          <mxGeometry width="50" height="50" relative="1" as="geometry">
            <mxPoint x="-624" y="238" as="sourcePoint" />
            <mxPoint x="-144" y="238" as="targetPoint" />
          </mxGeometry>
        </mxCell>
        <mxCell id="4-ESElVZmS9dLBBA-SZq-3" value="" style="rounded=1;whiteSpace=wrap;html=1;fillColor=#ffe6cc;strokeColor=#d79b00;" parent="1" vertex="1">
          <mxGeometry x="-621.75" y="110" width="12.75" height="20" as="geometry" />
        </mxCell>
        <mxCell id="4-ESElVZmS9dLBBA-SZq-4" value="" style="rounded=1;whiteSpace=wrap;html=1;fillColor=#f8cecc;strokeColor=#b85450;" parent="1" vertex="1">
          <mxGeometry x="-606.44" y="110" width="10.69" height="20" as="geometry" />
        </mxCell>
        <mxCell id="4-ESElVZmS9dLBBA-SZq-5" value="" style="rounded=1;whiteSpace=wrap;html=1;fillColor=#576775;strokeColor=#314354;fontColor=#ffffff;" parent="1" vertex="1">
          <mxGeometry x="-600.76" y="132" width="7.76" height="19" as="geometry" />
        </mxCell>
        <mxCell id="4-ESElVZmS9dLBBA-SZq-6" value="" style="rounded=1;whiteSpace=wrap;html=1;arcSize=6;fillColor=#F2F2F2;fontColor=#333333;strokeColor=#666666;strokeWidth=1;movable=1;resizable=1;rotatable=1;deletable=1;editable=1;locked=0;connectable=1;" parent="1" vertex="1">
          <mxGeometry x="-591.76" y="179" width="201" height="55" as="geometry" />
        </mxCell>
        <mxCell id="4-ESElVZmS9dLBBA-SZq-7" value="" style="rounded=1;whiteSpace=wrap;html=1;fillColor=#d5e8d4;strokeColor=#82b366;fontSize=9;" parent="1" vertex="1">
          <mxGeometry x="-583.28" y="209" width="8" height="20" as="geometry" />
        </mxCell>
        <mxCell id="4-ESElVZmS9dLBBA-SZq-9" value="" style="rounded=1;whiteSpace=wrap;html=1;fillColor=#e1d5e7;strokeColor=#9673a6;fontSize=8;" parent="1" vertex="1">
          <mxGeometry x="-576.48" y="185" width="30.14" height="20" as="geometry" />
        </mxCell>
        <mxCell id="4-ESElVZmS9dLBBA-SZq-10" value="" style="rounded=1;whiteSpace=wrap;html=1;fillColor=#e1d5e7;strokeColor=#9673a6;fontSize=8;" parent="1" vertex="1">
          <mxGeometry x="-561.24" y="209" width="29.9" height="20" as="geometry" />
        </mxCell>
        <mxCell id="4-ESElVZmS9dLBBA-SZq-17" value="" style="rounded=1;whiteSpace=wrap;html=1;fillColor=#dae8fc;strokeColor=#6c8ebf;fontSize=9;" parent="1" vertex="1">
          <mxGeometry x="-420.76" y="185" width="14" height="20" as="geometry" />
        </mxCell>
        <mxCell id="4-ESElVZmS9dLBBA-SZq-48" value="" style="endArrow=classic;html=1;rounded=0;strokeWidth=1.5;" parent="1" edge="1">
          <mxGeometry width="50" height="50" relative="1" as="geometry">
            <mxPoint x="-624" y="238" as="sourcePoint" />
            <mxPoint x="-624" y="88" as="targetPoint" />
          </mxGeometry>
        </mxCell>
        <mxCell id="4-ESElVZmS9dLBBA-SZq-49" value="" style="rounded=1;whiteSpace=wrap;html=1;fillColor=#e1d5e7;strokeColor=#9673a6;fontSize=8;" parent="1" vertex="1">
          <mxGeometry x="-532" y="185" width="30.14" height="20" as="geometry" />
        </mxCell>
        <mxCell id="4-ESElVZmS9dLBBA-SZq-50" value="" style="rounded=1;whiteSpace=wrap;html=1;fillColor=#e1d5e7;strokeColor=#9673a6;fontSize=8;" parent="1" vertex="1">
          <mxGeometry x="-516.76" y="209" width="29.9" height="20" as="geometry" />
        </mxCell>
        <UserObject label="$$\dots$$" placeholders="1" name="Variable" id="I4fshlmS5vwxDYP1peBm-1">
          <mxCell style="text;html=1;strokeColor=none;fillColor=none;align=center;verticalAlign=middle;whiteSpace=wrap;overflow=hidden;rotation=0;fontSize=13;strokeWidth=2;fontStyle=0;container=0;" vertex="1" parent="1">
            <mxGeometry x="-499.1200000000001" y="171" width="21" height="29" as="geometry" />
          </mxCell>
        </UserObject>
        <UserObject label="$$\dots$$" placeholders="1" name="Variable" id="I4fshlmS5vwxDYP1peBm-2">
          <mxCell style="text;html=1;strokeColor=none;fillColor=none;align=center;verticalAlign=middle;whiteSpace=wrap;overflow=hidden;rotation=0;fontSize=13;strokeWidth=2;fontStyle=0;container=0;" vertex="1" parent="1">
            <mxGeometry x="-483.57000000000016" y="192" width="21" height="29" as="geometry" />
          </mxCell>
        </UserObject>
        <mxCell id="I4fshlmS5vwxDYP1peBm-13" value="GPU Stream 1" style="text;html=1;align=center;verticalAlign=middle;whiteSpace=wrap;rounded=0;fontSize=10;fontStyle=1" vertex="1" parent="1">
          <mxGeometry x="-700" y="179" width="75" height="30" as="geometry" />
        </mxCell>
        <mxCell id="I4fshlmS5vwxDYP1peBm-14" value="GPU Stream 2" style="text;html=1;align=center;verticalAlign=middle;whiteSpace=wrap;rounded=0;fontSize=10;fontStyle=1" vertex="1" parent="1">
          <mxGeometry x="-700" y="203" width="75" height="30" as="geometry" />
        </mxCell>
        <mxCell id="I4fshlmS5vwxDYP1peBm-15" value="CPU Thread" style="text;html=1;align=center;verticalAlign=middle;whiteSpace=wrap;rounded=0;fontSize=10;fontStyle=1" vertex="1" parent="1">
          <mxGeometry x="-698" y="113" width="68" height="30" as="geometry" />
        </mxCell>
        <mxCell id="I4fshlmS5vwxDYP1peBm-27" value="" style="rounded=1;whiteSpace=wrap;html=1;fillColor=#e1d5e7;strokeColor=#9673a6;fontSize=8;" vertex="1" parent="1">
          <mxGeometry x="-476" y="185" width="30.14" height="20" as="geometry" />
        </mxCell>
        <mxCell id="I4fshlmS5vwxDYP1peBm-28" value="" style="rounded=1;whiteSpace=wrap;html=1;fillColor=#e1d5e7;strokeColor=#9673a6;fontSize=8;" vertex="1" parent="1">
          <mxGeometry x="-460.76" y="209" width="29.9" height="20" as="geometry" />
        </mxCell>
        <mxCell id="I4fshlmS5vwxDYP1peBm-30" value="" style="ellipse;whiteSpace=wrap;html=1;aspect=fixed;fillColor=#ffe6cc;strokeColor=#d79b00;fontSize=11;" vertex="1" parent="1">
          <mxGeometry x="-623.4800000000001" y="249.5" width="8" height="8" as="geometry" />
        </mxCell>
        <mxCell id="I4fshlmS5vwxDYP1peBm-31" value="Schedule circuits \(\mathcal{R},\mathcal{R}&#39;\)" style="text;html=1;align=center;verticalAlign=middle;whiteSpace=wrap;rounded=0;fontSize=11;" vertex="1" parent="1">
          <mxGeometry x="-621.28" y="248.5" width="137.28" height="8.5" as="geometry" />
        </mxCell>
        <mxCell id="I4fshlmS5vwxDYP1peBm-32" value="" style="ellipse;whiteSpace=wrap;html=1;aspect=fixed;fillColor=#f8cecc;strokeColor=#b85450;fontSize=11;" vertex="1" parent="1">
          <mxGeometry x="-470.5000000000001" y="250" width="8" height="8" as="geometry" />
        </mxCell>
        <mxCell id="I4fshlmS5vwxDYP1peBm-33" value="Copy \(\mathcal{R},\mathcal{R}&#39;\) to device memory" style="text;html=1;align=center;verticalAlign=middle;whiteSpace=wrap;rounded=0;fontSize=11;" vertex="1" parent="1">
          <mxGeometry x="-467.5" y="247" width="167.5" height="11" as="geometry" />
        </mxCell>
        <mxCell id="I4fshlmS5vwxDYP1peBm-35" value="" style="ellipse;whiteSpace=wrap;html=1;aspect=fixed;fillColor=#576775;strokeColor=#314354;fontSize=11;" vertex="1" parent="1">
          <mxGeometry x="-291.60000000000014" y="250.5" width="8" height="8" as="geometry" />
        </mxCell>
        <mxCell id="I4fshlmS5vwxDYP1peBm-36" value="Allocate Tableaux \(\mathcal{T},\mathcal{T}&#39;\)&amp;nbsp;" style="text;html=1;align=center;verticalAlign=middle;whiteSpace=wrap;rounded=0;fontSize=11;" vertex="1" parent="1">
          <mxGeometry x="-284.6" y="250.5" width="135.6" height="7" as="geometry" />
        </mxCell>
        <mxCell id="I4fshlmS5vwxDYP1peBm-48" value="" style="ellipse;whiteSpace=wrap;html=1;aspect=fixed;fillColor=#d5e8d4;strokeColor=#82b366;fontSize=11;" vertex="1" parent="1">
          <mxGeometry x="-623.4800000000001" y="268.5" width="8" height="8" as="geometry" />
        </mxCell>
        <mxCell id="I4fshlmS5vwxDYP1peBm-49" value="Initialize Tableau \(\mathcal{T}\) (\(\mathcal{T}&#39;\))&amp;nbsp;" style="text;html=1;align=center;verticalAlign=middle;whiteSpace=wrap;rounded=0;fontSize=11;" vertex="1" parent="1">
          <mxGeometry x="-616.78" y="268.5" width="135.78" height="8" as="geometry" />
        </mxCell>
        <mxCell id="I4fshlmS5vwxDYP1peBm-50" value="" style="ellipse;whiteSpace=wrap;html=1;aspect=fixed;fillColor=#e1d5e7;strokeColor=#9673a6;fontSize=11;" vertex="1" parent="1">
          <mxGeometry x="-470.5000000000001" y="269" width="8" height="8" as="geometry" />
        </mxCell>
        <mxCell id="I4fshlmS5vwxDYP1peBm-51" value="Update Tableau \(\mathcal{T}\) (\(\mathcal{T}&#39;\))&amp;nbsp;" style="text;html=1;align=center;verticalAlign=middle;whiteSpace=wrap;rounded=0;fontSize=11;" vertex="1" parent="1">
          <mxGeometry x="-461.86" y="267" width="127.86" height="11" as="geometry" />
        </mxCell>
        <mxCell id="I4fshlmS5vwxDYP1peBm-52" value="" style="ellipse;whiteSpace=wrap;html=1;aspect=fixed;fillColor=#dae8fc;strokeColor=#6c8ebf;fontSize=11;" vertex="1" parent="1">
          <mxGeometry x="-291.60000000000014" y="268.5" width="8" height="8" as="geometry" />
        </mxCell>
        <mxCell id="I4fshlmS5vwxDYP1peBm-53" value="Check if \(\mathcal{T} = \mathcal{T}&#39;\)&amp;nbsp;" style="text;html=1;align=center;verticalAlign=middle;whiteSpace=wrap;rounded=0;fontSize=11;" vertex="1" parent="1">
          <mxGeometry x="-286.78" y="268" width="104.78" height="7" as="geometry" />
        </mxCell>
        <mxCell id="I4fshlmS5vwxDYP1peBm-54" value="" style="rounded=1;whiteSpace=wrap;html=1;fillColor=#d5e8d4;strokeColor=#82b366;fontSize=9;" vertex="1" parent="1">
          <mxGeometry x="-587.48" y="185" width="8" height="20" as="geometry" />
        </mxCell>
        <mxCell id="I4fshlmS5vwxDYP1peBm-57" value="" style="endArrow=none;html=1;rounded=0;fontColor=#994C00;strokeColor=#994C00;" edge="1" parent="1">
          <mxGeometry width="50" height="50" relative="1" as="geometry">
            <mxPoint x="-426" y="228" as="sourcePoint" />
            <mxPoint x="-425.76" y="188" as="targetPoint" />
          </mxGeometry>
        </mxCell>
        <mxCell id="I4fshlmS5vwxDYP1peBm-59" value="" style="endArrow=none;dashed=1;html=1;rounded=0;strokeColor=#000000;" edge="1" parent="1">
          <mxGeometry width="50" height="50" relative="1" as="geometry">
            <mxPoint x="-695" y="162" as="sourcePoint" />
            <mxPoint x="-155" y="161" as="targetPoint" />
          </mxGeometry>
        </mxCell>
        <mxCell id="I4fshlmS5vwxDYP1peBm-64" value="Synchronize Streams" style="text;html=1;align=center;verticalAlign=middle;whiteSpace=wrap;rounded=0;fontSize=11;fontColor=#000000;" vertex="1" parent="1">
          <mxGeometry x="-462.57" y="131" width="67.48" height="20" as="geometry" />
        </mxCell>
        <mxCell id="I4fshlmS5vwxDYP1peBm-66" value="Partition 1" style="text;html=1;align=center;verticalAlign=middle;whiteSpace=wrap;rounded=0;fontSize=11;fontColor=#666666;" vertex="1" parent="1">
          <mxGeometry x="-529.51" y="166.5" width="52.01" height="6" as="geometry" />
        </mxCell>
        <UserObject label="$$\dots$$" placeholders="1" name="Variable" id="I4fshlmS5vwxDYP1peBm-75">
          <mxCell style="text;html=1;strokeColor=none;fillColor=none;align=center;verticalAlign=middle;whiteSpace=wrap;overflow=hidden;rotation=0;fontSize=13;strokeWidth=2;fontStyle=0;container=0;" vertex="1" parent="1">
            <mxGeometry x="-183.62000000000015" y="179" width="21" height="29" as="geometry" />
          </mxCell>
        </UserObject>
        <mxCell id="I4fshlmS5vwxDYP1peBm-86" value="Partition 2" style="text;html=1;align=center;verticalAlign=middle;whiteSpace=wrap;rounded=0;fontSize=11;fontColor=#666666;" vertex="1" parent="1">
          <mxGeometry x="-310.50000000000006" y="160" width="52.01" height="19" as="geometry" />
        </mxCell>
        <mxCell id="I4fshlmS5vwxDYP1peBm-87" value="Time" style="text;html=1;align=center;verticalAlign=middle;whiteSpace=wrap;rounded=0;fontSize=10;fontColor=#000000;fontStyle=1" vertex="1" parent="1">
          <mxGeometry x="-146" y="228" width="33.5" height="20" as="geometry" />
        </mxCell>
        <mxCell id="I4fshlmS5vwxDYP1peBm-88" value="Resources" style="text;html=1;align=center;verticalAlign=middle;whiteSpace=wrap;rounded=0;fontSize=10;fontColor=#000000;fontStyle=1" vertex="1" parent="1">
          <mxGeometry x="-639.94" y="70" width="33.5" height="20" as="geometry" />
        </mxCell>
        <mxCell id="I4fshlmS5vwxDYP1peBm-60" value="" style="endArrow=open;html=1;rounded=0;endFill=0;endSize=4;strokeColor=#000000;" edge="1" parent="1">
          <mxGeometry width="50" height="50" relative="1" as="geometry">
            <mxPoint x="-427.86" y="156" as="sourcePoint" />
            <mxPoint x="-426" y="187" as="targetPoint" />
          </mxGeometry>
        </mxCell>
        <mxCell id="I4fshlmS5vwxDYP1peBm-107" value="" style="rounded=1;whiteSpace=wrap;html=1;arcSize=6;fillColor=#F2F2F2;fontColor=#333333;strokeColor=#666666;strokeWidth=1;movable=1;resizable=1;rotatable=1;deletable=1;editable=1;locked=0;connectable=1;" vertex="1" parent="1">
          <mxGeometry x="-387.62" y="179" width="201" height="55" as="geometry" />
        </mxCell>
        <mxCell id="I4fshlmS5vwxDYP1peBm-108" value="" style="rounded=1;whiteSpace=wrap;html=1;fillColor=#d5e8d4;strokeColor=#82b366;fontSize=9;" vertex="1" parent="1">
          <mxGeometry x="-379.14" y="209" width="8" height="20" as="geometry" />
        </mxCell>
        <mxCell id="I4fshlmS5vwxDYP1peBm-109" value="" style="rounded=1;whiteSpace=wrap;html=1;fillColor=#e1d5e7;strokeColor=#9673a6;fontSize=8;" vertex="1" parent="1">
          <mxGeometry x="-372.34000000000003" y="185" width="30.14" height="20" as="geometry" />
        </mxCell>
        <mxCell id="I4fshlmS5vwxDYP1peBm-110" value="" style="rounded=1;whiteSpace=wrap;html=1;fillColor=#e1d5e7;strokeColor=#9673a6;fontSize=8;" vertex="1" parent="1">
          <mxGeometry x="-357.1" y="209" width="29.9" height="20" as="geometry" />
        </mxCell>
        <mxCell id="I4fshlmS5vwxDYP1peBm-111" value="" style="rounded=1;whiteSpace=wrap;html=1;fillColor=#dae8fc;strokeColor=#6c8ebf;fontSize=9;" vertex="1" parent="1">
          <mxGeometry x="-216.62" y="185" width="14" height="20" as="geometry" />
        </mxCell>
        <mxCell id="I4fshlmS5vwxDYP1peBm-112" value="" style="rounded=1;whiteSpace=wrap;html=1;fillColor=#e1d5e7;strokeColor=#9673a6;fontSize=8;" vertex="1" parent="1">
          <mxGeometry x="-327.86" y="185" width="30.14" height="20" as="geometry" />
        </mxCell>
        <mxCell id="I4fshlmS5vwxDYP1peBm-113" value="" style="rounded=1;whiteSpace=wrap;html=1;fillColor=#e1d5e7;strokeColor=#9673a6;fontSize=8;" vertex="1" parent="1">
          <mxGeometry x="-312.62" y="209" width="29.9" height="20" as="geometry" />
        </mxCell>
        <UserObject label="$$\dots$$" placeholders="1" name="Variable" id="I4fshlmS5vwxDYP1peBm-114">
          <mxCell style="text;html=1;strokeColor=none;fillColor=none;align=center;verticalAlign=middle;whiteSpace=wrap;overflow=hidden;rotation=0;fontSize=13;strokeWidth=2;fontStyle=0;container=0;" vertex="1" parent="1">
            <mxGeometry x="-294.98000000000013" y="171" width="21" height="29" as="geometry" />
          </mxCell>
        </UserObject>
        <UserObject label="$$\dots$$" placeholders="1" name="Variable" id="I4fshlmS5vwxDYP1peBm-115">
          <mxCell style="text;html=1;strokeColor=none;fillColor=none;align=center;verticalAlign=middle;whiteSpace=wrap;overflow=hidden;rotation=0;fontSize=13;strokeWidth=2;fontStyle=0;container=0;" vertex="1" parent="1">
            <mxGeometry x="-279.4900000000002" y="192" width="21" height="29" as="geometry" />
          </mxCell>
        </UserObject>
        <mxCell id="I4fshlmS5vwxDYP1peBm-116" value="" style="rounded=1;whiteSpace=wrap;html=1;fillColor=#e1d5e7;strokeColor=#9673a6;fontSize=8;" vertex="1" parent="1">
          <mxGeometry x="-271.86" y="185" width="30.14" height="20" as="geometry" />
        </mxCell>
        <mxCell id="I4fshlmS5vwxDYP1peBm-117" value="" style="rounded=1;whiteSpace=wrap;html=1;fillColor=#e1d5e7;strokeColor=#9673a6;fontSize=8;" vertex="1" parent="1">
          <mxGeometry x="-256.62" y="209" width="29.9" height="20" as="geometry" />
        </mxCell>
        <mxCell id="I4fshlmS5vwxDYP1peBm-118" value="" style="rounded=1;whiteSpace=wrap;html=1;fillColor=#d5e8d4;strokeColor=#82b366;fontSize=9;" vertex="1" parent="1">
          <mxGeometry x="-383.34000000000003" y="185" width="8" height="20" as="geometry" />
        </mxCell>
        <mxCell id="I4fshlmS5vwxDYP1peBm-119" value="" style="endArrow=none;html=1;rounded=0;fontColor=#994C00;strokeColor=#994C00;" edge="1" parent="1">
          <mxGeometry width="50" height="50" relative="1" as="geometry">
            <mxPoint x="-221.86" y="228" as="sourcePoint" />
            <mxPoint x="-221.62" y="188" as="targetPoint" />
          </mxGeometry>
        </mxCell>
      </root>
    </mxGraphModel>
  </diagram>
</mxfile>
